<svg width="32" height="32" viewBox="0 0 32 32" fill="none" xmlns="http://www.w3.org/2000/svg">
    <path d="M32 5C32 2.23858 29.7614 0 27 0H5C2.23858 0 0 2.23858 0 5V27C0 29.7614 2.23858 32 5 32H27C29.7614 32 32 29.7614 32 27V5Z" fill="white"/>
    <path d="M14.6831 16.3539L14.3295 16.0003L14.6831 15.6468L17.5931 12.7368C17.6903 12.6395 17.6903 12.4836 17.5931 12.3864C17.4926 12.2859 17.3292 12.2924 17.2427 12.3789L13.8002 15.8214C13.703 15.9186 13.703 16.0745 13.8002 16.1718L17.2427 19.6143L16.8891 19.9678L17.2427 19.6143C17.3399 19.7115 17.4958 19.7115 17.5931 19.6143C17.6903 19.517 17.6903 19.3611 17.5931 19.2639L14.6831 16.3539Z" fill="#1863FD" stroke="#1863FD"/>
</svg>
